<svg width="244" height="123" viewBox="0 0 244 123" fill="none" xmlns="http://www.w3.org/2000/svg">
<path d="M235.955 121.908C236.383 122.257 237.013 122.193 237.362 121.765L243.049 114.79C243.398 114.362 243.334 113.732 242.906 113.383C242.478 113.034 241.848 113.098 241.499 113.526L236.444 119.726L230.243 114.671C229.815 114.322 229.185 114.386 228.836 114.814C228.487 115.242 228.551 115.872 228.979 116.221L235.955 121.908ZM0.402082 -36.0373C23.2802 10.8604 47.9173 27.684 72.5979 30.3564C84.8858 31.6869 97.0838 29.4948 108.929 25.902C120.76 22.3137 132.331 17.2967 143.294 12.9547C154.3 8.59587 164.691 4.91818 174.321 3.88714C183.911 2.86049 192.686 4.46414 200.538 10.6262C208.426 16.8168 215.498 27.6976 221.448 45.4734C227.395 63.2406 232.19 87.8017 235.592 121.234L237.582 121.032C234.173 87.5283 229.358 62.8037 223.344 44.8386C217.334 26.8822 210.095 15.5844 201.773 9.05289C193.414 2.4929 184.079 0.831052 174.109 1.89851C164.179 2.9616 153.561 6.73765 142.558 11.0952C131.512 15.4696 120.075 20.4316 108.349 23.9881C96.6377 27.5401 84.7299 29.6584 72.8132 28.368C49.0846 25.7987 24.9178 9.65561 2.1996 -36.9142L0.402082 -36.0373Z" fill="#730975"/>
</svg>
