<svg width="39" height="39" viewBox="0 0 39 39" fill="none" xmlns="http://www.w3.org/2000/svg">
<path d="M33.0438 19.9782L22.3806 30.6414C22.1583 30.8637 21.8567 30.9886 21.5423 30.9886C21.2279 30.9886 20.9264 30.8637 20.7041 30.6414C20.4818 30.4191 20.3569 30.1176 20.3569 29.8032C20.3569 29.4888 20.4818 29.1872 20.7041 28.9649L29.3457 20.3248H6.13988C5.82565 20.3248 5.52429 20.1999 5.3021 19.9777C5.07991 19.7555 4.95508 19.4542 4.95508 19.1399C4.95508 18.8257 5.07991 18.5244 5.3021 18.3022C5.52429 18.08 5.82565 17.9551 6.13988 17.9551H29.3457L20.7041 9.31497C20.4818 9.09265 20.3569 8.79113 20.3569 8.47672C20.3569 8.16232 20.4818 7.86079 20.7041 7.63847C20.9264 7.41616 21.2279 7.29126 21.5423 7.29126C21.8567 7.29126 22.1583 7.41616 22.3806 7.63847L33.0438 18.3017C33.154 18.4117 33.2413 18.5424 33.301 18.6862C33.3606 18.8301 33.3913 18.9842 33.3913 19.1399C33.3913 19.2957 33.3606 19.4498 33.301 19.5937C33.2413 19.7375 33.154 19.8682 33.0438 19.9782Z" fill="black"/>
</svg>
