<svg width="148" height="149" viewBox="0 0 148 149" fill="none" xmlns="http://www.w3.org/2000/svg">
<path d="M139.784 148.074C140.199 148.439 140.831 148.398 141.196 147.984L147.144 141.229C147.509 140.815 147.468 140.183 147.054 139.818C146.639 139.453 146.007 139.493 145.643 139.908L140.356 145.912L134.352 140.625C133.937 140.26 133.305 140.3 132.94 140.714C132.575 141.129 132.615 141.761 133.03 142.126L139.784 148.074ZM-89.6033 -18.6992C-68.5218 29.0331 -44.541 46.7798 -19.9797 50.3871C-7.75117 52.1831 4.52129 50.4555 16.4948 47.315C28.4534 44.1784 40.2059 39.6041 51.3262 35.6814C62.4896 31.7435 73.0128 28.4629 82.6752 27.7981C92.2967 27.1362 101.005 29.0718 108.617 35.5275C116.264 42.0129 122.918 53.1544 128.189 71.1433C133.458 89.1234 137.317 113.849 139.447 147.386L141.443 147.26C139.309 113.651 135.436 88.7612 130.109 70.5809C124.784 52.4093 117.979 40.8449 109.911 34.0021C101.807 27.1296 92.5418 25.1146 82.538 25.8028C72.5751 26.4883 61.8211 29.8585 50.6609 33.7953C39.4575 37.7473 27.8399 42.2716 15.9874 45.3804C4.14972 48.4853 -7.82996 50.1501 -19.6891 48.4083C-43.303 44.9402 -66.8397 27.8914 -87.7738 -19.5072L-89.6033 -18.6992Z" fill="#730975"/>
</svg>
