<svg width="210" height="237" viewBox="0 0 210 237" fill="none" xmlns="http://www.w3.org/2000/svg">
<path d="M167.955 218.908C168.383 219.257 169.013 219.193 169.362 218.765L175.049 211.79C175.398 211.362 175.334 210.732 174.906 210.383C174.478 210.034 173.848 210.098 173.499 210.526L168.444 216.726L162.243 211.671C161.815 211.322 161.185 211.386 160.836 211.814C160.487 212.242 160.551 212.872 160.979 213.221L167.955 218.908ZM-67.5979 60.9627C-44.7197 107.86 -20.0826 124.684 4.59796 127.356C16.8858 128.687 29.0839 126.495 40.9295 122.902C52.7604 119.314 64.3309 114.297 75.2943 109.955C86.3002 105.596 96.6913 101.918 106.321 100.887C115.911 99.8605 124.686 101.464 132.538 107.626C140.426 113.817 147.498 124.698 153.448 142.473C159.395 160.241 164.19 184.802 167.592 218.234L169.582 218.032C166.173 184.528 161.358 159.804 155.345 141.839C149.334 123.882 142.095 112.584 133.773 106.053C125.414 99.4929 116.079 97.8311 106.109 98.8985C96.1789 99.9616 85.5606 103.738 74.5578 108.095C63.5126 112.47 52.075 117.432 40.349 120.988C28.6378 124.54 16.7299 126.658 4.81325 125.368C-18.9153 122.799 -43.0821 106.656 -65.8003 60.0858L-67.5979 60.9627Z" fill="#730975"/>
</svg>
