<svg width="49" height="48" viewBox="0 0 49 48" fill="none" xmlns="http://www.w3.org/2000/svg">
<path d="M45.42 12C43.88 12.7 42.22 13.16 40.5 13.38C42.26 12.32 43.62 10.64 44.26 8.62C42.6 9.62 40.76 10.32 38.82 10.72C37.24 9 35.02 8 32.5 8C27.8 8 23.96 11.84 23.96 16.58C23.96 17.26 24.04 17.92 24.18 18.54C17.06 18.18 10.72 14.76 6.49996 9.58C5.75996 10.84 5.33996 12.32 5.33996 13.88C5.33996 16.86 6.83996 19.5 9.15996 21C7.73996 21 6.41996 20.6 5.25996 20V20.06C5.25996 24.22 8.21996 27.7 12.14 28.48C10.8814 28.8244 9.56015 28.8723 8.27996 28.62C8.82317 30.325 9.88703 31.8168 11.322 32.8859C12.7569 33.9549 14.4909 34.5474 16.28 34.58C13.2472 36.9809 9.48795 38.2786 5.61996 38.26C4.93996 38.26 4.25996 38.22 3.57996 38.14C7.37996 40.58 11.9 42 16.74 42C32.5 42 41.16 28.92 41.16 17.58C41.16 17.2 41.16 16.84 41.14 16.46C42.82 15.26 44.26 13.74 45.42 12Z" fill="#0A611D"/>
</svg>
