<svg width="49" height="48" viewBox="0 0 49 48" fill="none" xmlns="http://www.w3.org/2000/svg">
<path d="M26.5561 4C28.8061 4.006 29.9481 4.018 30.9341 4.046L31.3221 4.06C31.7701 4.076 32.2121 4.096 32.7461 4.12C34.8741 4.22 36.3261 4.556 37.6001 5.05C38.9201 5.558 40.0321 6.246 41.1441 7.356C42.161 8.35579 42.948 9.56518 43.4501 10.9C43.9441 12.174 44.2801 13.626 44.3801 15.756C44.4041 16.288 44.4241 16.73 44.4401 17.18L44.4521 17.568C44.4821 18.552 44.4941 19.694 44.4981 21.944L44.5001 23.436V26.056C44.505 27.5148 44.4896 28.9736 44.4541 30.432L44.4421 30.82C44.4261 31.27 44.4061 31.712 44.3821 32.244C44.2821 34.374 43.9421 35.824 43.4501 37.1C42.9494 38.4356 42.1623 39.6452 41.1441 40.644C40.144 41.6606 38.9347 42.4475 37.6001 42.95C36.3261 43.444 34.8741 43.78 32.7461 43.88C32.2715 43.9023 31.7968 43.9223 31.3221 43.94L30.9341 43.952C29.9481 43.98 28.8061 43.994 26.5561 43.998L25.0641 44H22.4461C20.9866 44.005 19.5271 43.9897 18.0681 43.954L17.6801 43.942C17.2053 43.924 16.7306 43.9034 16.2561 43.88C14.1281 43.78 12.6761 43.444 11.4001 42.95C10.0654 42.4487 8.85649 41.6617 7.85806 40.644C6.84015 39.6446 6.0525 38.4351 5.55006 37.1C5.05606 35.826 4.72006 34.374 4.62006 32.244C4.59777 31.7694 4.57777 31.2948 4.56006 30.82L4.55006 30.432C4.5132 28.9736 4.49653 27.5148 4.50006 26.056V21.944C4.49447 20.4852 4.50914 19.0264 4.54406 17.568L4.55806 17.18C4.57406 16.73 4.59406 16.288 4.61806 15.756C4.71806 13.626 5.05406 12.176 5.54806 10.9C6.05028 9.56381 6.8395 8.35405 7.86006 7.356C8.85824 6.33895 10.0663 5.55197 11.4001 5.05C12.6761 4.556 14.1261 4.22 16.2561 4.12C16.7881 4.096 17.2321 4.076 17.6801 4.06L18.0681 4.048C19.5264 4.01247 20.9852 3.99713 22.4441 4.002L26.5561 4ZM24.5001 14C21.8479 14 19.3044 15.0536 17.429 16.9289C15.5536 18.8043 14.5001 21.3478 14.5001 24C14.5001 26.6522 15.5536 29.1957 17.429 31.0711C19.3044 32.9464 21.8479 34 24.5001 34C27.1522 34 29.6958 32.9464 31.5711 31.0711C33.4465 29.1957 34.5001 26.6522 34.5001 24C34.5001 21.3478 33.4465 18.8043 31.5711 16.9289C29.6958 15.0536 27.1522 14 24.5001 14ZM24.5001 18C25.288 17.9999 26.0682 18.1549 26.7962 18.4563C27.5242 18.7577 28.1857 19.1996 28.743 19.7567C29.3002 20.3137 29.7423 20.9751 30.0439 21.703C30.3456 22.4309 30.5009 23.2111 30.5011 23.999C30.5012 24.7869 30.3461 25.5672 30.0447 26.2952C29.7433 27.0232 29.3015 27.6847 28.7444 28.2419C28.1873 28.7992 27.526 29.2412 26.7981 29.5429C26.0702 29.8445 25.29 29.9999 24.5021 30C22.9108 30 21.3846 29.3679 20.2594 28.2426C19.1342 27.1174 18.5021 25.5913 18.5021 24C18.5021 22.4087 19.1342 20.8826 20.2594 19.7574C21.3846 18.6321 22.9108 18 24.5021 18M35.0021 11C34.339 11 33.7031 11.2634 33.2343 11.7322C32.7654 12.2011 32.5021 12.837 32.5021 13.5C32.5021 14.163 32.7654 14.7989 33.2343 15.2678C33.7031 15.7366 34.339 16 35.0021 16C35.6651 16 36.301 15.7366 36.7698 15.2678C37.2387 14.7989 37.5021 14.163 37.5021 13.5C37.5021 12.837 37.2387 12.2011 36.7698 11.7322C36.301 11.2634 35.6651 11 35.0021 11Z" fill="#0A611D"/>
</svg>
