<svg width="49" height="48" viewBox="0 0 49 48" fill="none" xmlns="http://www.w3.org/2000/svg">
<path fill-rule="evenodd" clip-rule="evenodd" d="M10.114 16.63C11.67 15.022 13.226 14.486 15.3 15.558C17.168 16.523 18.195 16.619 19.138 16.629C20.121 16.619 21.19 16.523 23.136 15.558C25.296 14.486 26.916 15.022 28.537 16.63C30.447 18.526 31.037 20.5 31.238 21.991C31.262 22.111 31.282 22.231 31.301 22.351C30.6563 22.5391 30.0793 22.9088 29.6388 23.4158C29.1983 23.9229 28.913 24.5459 28.8169 25.2106C28.7208 25.8754 28.8179 26.5537 29.0966 27.1648C29.3754 27.7759 29.824 28.2938 30.389 28.657L30.31 28.86C29.914 28.5796 29.464 28.3846 28.9885 28.2875C28.5131 28.1903 28.0227 28.1931 27.5484 28.2956C27.0741 28.3981 26.6264 28.5981 26.2335 28.8829C25.8406 29.1677 25.5113 29.5311 25.2663 29.9499C25.0214 30.3688 24.8663 30.8341 24.8107 31.3161C24.7552 31.7982 24.8005 32.2865 24.9438 32.7501C25.0871 33.2137 25.3252 33.6424 25.643 34.0091C25.9609 34.3758 26.3514 34.6723 26.79 34.88C26.6997 34.9919 26.6073 35.1023 26.513 35.211C25.678 36.08 24.728 36.637 23.698 36.467C20.458 35.93 19.918 35.93 19.378 35.93H18.908C18.39 35.93 17.871 35.93 14.76 36.467C12.27 36.895 10.27 32.714 9.27801 30.571C7.71801 27.208 7.40701 23.771 7.52101 21.991C7.71401 20.499 8.28101 18.526 10.114 16.631" fill="#121111"/>
<path fill-rule="evenodd" clip-rule="evenodd" d="M38.3451 18.09C39.4684 18.493 40.3856 19.3257 40.8949 20.405C41.4042 21.4843 41.464 22.7216 41.0611 23.845C41.0291 23.934 40.9861 24.015 40.9341 24.088C41.7498 24.7901 42.2871 25.7613 42.4486 26.8255C42.61 27.8897 42.3849 28.9765 41.8141 29.889C41.5333 30.3364 41.1762 30.731 40.7591 31.055C40.8493 31.9492 40.6684 32.8499 40.2401 33.64C40.7974 33.9412 41.2848 34.3568 41.6704 34.8594C42.056 35.362 42.3312 35.9404 42.4779 36.5567C42.6246 37.173 42.6395 37.8133 42.5216 38.4358C42.4038 39.0582 42.1558 39.6488 41.794 40.1688C41.4321 40.6888 40.9646 41.1266 40.4219 41.4534C39.8792 41.7803 39.2736 41.9889 38.6447 42.0656C38.0159 42.1422 37.3779 42.0852 36.7726 41.8983C36.1673 41.7114 35.6082 41.3988 35.1321 40.981C34.3716 41.6045 33.4278 41.9618 32.445 41.9981C31.4623 42.0345 30.4947 41.7479 29.6902 41.1822C28.8858 40.6165 28.2888 39.8028 27.9906 38.8657C27.6924 37.9285 27.7095 36.9195 28.0391 35.993C26.8891 35.9311 25.8066 35.4307 25.0145 34.5948C24.2224 33.7589 23.7808 32.6511 23.7808 31.4995C23.7808 30.3479 24.2224 29.2401 25.0145 28.4042C25.8066 27.5683 26.8891 27.0679 28.0391 27.006C27.7905 26.3063 27.7189 25.5559 27.8307 24.8218C27.9425 24.0877 28.2342 23.3927 28.6799 22.7987C29.1255 22.2048 29.7112 21.7303 30.3848 21.4177C31.0583 21.1051 31.7988 20.964 32.5401 21.007C32.5501 20.94 32.5661 20.872 32.5901 20.805C32.9933 19.6819 33.8261 18.7649 34.9054 18.2558C35.9846 17.7466 37.2219 17.687 38.3451 18.09ZM36.3621 39.397C36.6305 39.6559 36.9534 39.8516 37.3072 39.9695C37.661 40.0875 38.0367 40.1248 38.4068 40.0787C38.7769 40.0326 39.132 39.9043 39.4461 39.7032C39.7602 39.5021 40.0253 39.2332 40.222 38.9164C40.4187 38.5995 40.542 38.2426 40.5829 37.8719C40.6237 37.5012 40.5812 37.1261 40.4583 36.774C40.3354 36.4218 40.1352 36.1017 39.8725 35.837C39.6098 35.5722 39.2912 35.3696 38.9401 35.244C38.906 35.2318 38.8726 35.2178 38.8401 35.202C38.1751 35.662 37.3801 35.948 36.5221 35.994C36.6891 36.464 36.7801 36.972 36.7801 37.5C36.7801 38.178 36.6301 38.82 36.3621 39.397ZM36.5221 27.007C37.2171 27.0439 37.8941 27.2416 38.4998 27.5847C39.1054 27.9278 39.6231 28.4068 40.0121 28.984C40.249 28.6618 40.4057 28.2878 40.4691 27.893C40.5428 27.4291 40.4844 26.9539 40.3006 26.5217C40.1167 26.0895 39.8148 25.7179 39.4295 25.4493C39.0442 25.1808 38.591 25.0262 38.1219 25.0034C37.6528 24.9805 37.1867 25.0902 36.7771 25.32C36.8004 25.8931 36.7138 26.4664 36.5221 27.007ZM36.2391 23.358C37.1699 22.9633 38.2064 22.8929 39.1821 23.158C39.4023 22.5339 39.3662 21.848 39.0815 21.2506C38.7969 20.6532 38.287 20.193 37.6636 19.9709C37.0402 19.7488 36.3542 19.7829 35.7559 20.0658C35.1577 20.3487 34.696 20.8572 34.4721 21.48C34.4634 21.5044 34.4537 21.5284 34.4431 21.552C35.2025 21.9694 35.8259 22.5963 36.2391 23.358ZM32.2801 23C31.617 23 30.9811 23.2634 30.5123 23.7322C30.0435 24.201 29.7801 24.8369 29.7801 25.5C29.7801 26.163 30.0435 26.7989 30.5123 27.2677C30.9811 27.7366 31.617 28 32.2801 28C32.9431 28 33.579 27.7366 34.0478 27.2677C34.5167 26.7989 34.7801 26.163 34.7801 25.5C34.7801 24.8369 34.5167 24.201 34.0478 23.7322C33.579 23.2634 32.9431 23 32.2801 23ZM28.2801 29C27.617 29 26.9811 29.2634 26.5123 29.7322C26.0435 30.201 25.7801 30.8369 25.7801 31.5C25.7801 32.163 26.0435 32.7989 26.5123 33.2677C26.9811 33.7366 27.617 34 28.2801 34C28.9431 34 29.579 33.7366 30.0478 33.2677C30.5167 32.7989 30.7801 32.163 30.7801 31.5C30.7801 30.8369 30.5167 30.201 30.0478 29.7322C29.579 29.2634 28.9431 29 28.2801 29ZM33.7801 31.5C33.7801 30.8369 34.0435 30.201 34.5123 29.7322C34.9811 29.2634 35.617 29 36.2801 29C36.9431 29 37.579 29.2634 38.0478 29.7322C38.5167 30.201 38.7801 30.8369 38.7801 31.5C38.7801 32.163 38.5167 32.7989 38.0478 33.2677C37.579 33.7366 36.9431 34 36.2801 34C35.617 34 34.9811 33.7366 34.5123 33.2677C34.0435 32.7989 33.7801 32.163 33.7801 31.5ZM32.2801 35C31.617 35 30.9811 35.2634 30.5123 35.7322C30.0435 36.201 29.7801 36.8369 29.7801 37.5C29.7801 38.163 30.0435 38.7989 30.5123 39.2677C30.9811 39.7366 31.617 40 32.2801 40C32.9431 40 33.579 39.7366 34.0478 39.2677C34.5167 38.7989 34.7801 38.163 34.7801 37.5C34.7801 36.8369 34.5167 36.201 34.0478 35.7322C33.579 35.2634 32.9431 35 32.2801 35ZM8.06506 8.00098H9.19806C12.0381 8.00098 14.7121 9.27798 16.6641 10.973C17.2987 11.5218 17.8739 12.1358 18.3801 12.805V10.566C18.3801 10.3008 18.4854 10.0464 18.673 9.85887C18.8605 9.67133 19.1148 9.56598 19.3801 9.56598C19.6453 9.56598 19.8996 9.67133 20.0872 9.85887C20.2747 10.0464 20.3801 10.3008 20.3801 10.566V17.166C20.3803 17.3171 20.3462 17.4662 20.2803 17.6022C20.2145 17.7382 20.1187 17.8574 20.0001 17.951V18H19.9321C19.7682 18.1091 19.5756 18.1672 19.3788 18.1668C19.1819 18.1664 18.9895 18.1077 18.8261 17.998C16.3861 17.954 13.9341 17.005 12.0041 15.482C10.0281 13.922 8.52806 11.702 8.20606 9.12398L8.06506 8.00098ZM17.8111 15.911C17.4571 14.82 16.6151 13.579 15.3531 12.483C13.9931 11.303 12.2731 10.404 10.4691 10.107C10.9521 11.569 11.9421 12.886 13.2431 13.913C14.5761 14.964 16.1901 15.672 17.8111 15.911Z" fill="#121111"/>
<path fill-rule="evenodd" clip-rule="evenodd" d="M38.468 9.14404L38.65 10.262C39.105 13.065 38.273 15.91 36.912 18.108C35.574 20.27 33.578 22.028 31.497 22.366L30.51 22.526L30.35 21.54C29.95 19.075 30.492 16.43 31.714 14.23C32.937 12.03 34.889 10.194 37.381 9.46304L38.468 9.14404ZM36.774 11.854C35.409 12.566 34.267 13.754 33.462 15.202C32.638 16.686 32.196 18.392 32.221 20.032C33.241 19.507 34.331 18.477 35.211 17.055C36.159 15.525 36.77 13.682 36.775 11.855" fill="#121111"/>
</svg>
