<svg width="128" height="113" viewBox="0 0 128 113" fill="none" xmlns="http://www.w3.org/2000/svg">
<g opacity="0.2" clip-path="url(#clip0_494_2263)">
<g clip-path="url(#clip1_494_2263)">
<path d="M35.6356 18.9456C32.1504 18.5199 28.6172 19.1336 25.4797 20.7097C22.3423 22.2858 19.7407 24.754 18.0016 27.8041C16.2626 30.8543 15.4638 34.3503 15.7055 37.853C15.9473 41.3558 17.2188 44.7089 19.3603 47.4913C19.0888 50.6966 19.7357 53.9129 21.2252 56.7641C22.7148 59.6152 24.9854 61.9832 27.7715 63.5912C35.6627 68.12 45.9087 65.4714 50.6142 57.6916C52.0383 55.3386 52.863 52.6719 53.0157 49.9257L61.0602 54.5122C61.4922 54.7585 62.0044 54.8231 62.484 54.6918C62.9636 54.5605 63.3715 54.244 63.6178 53.812C63.8641 53.3801 63.9287 52.8679 63.7974 52.3883C63.6661 51.9086 63.3496 51.5008 62.9176 51.2545L54.8731 46.668C57.0359 45.2198 58.8313 43.2875 60.1169 41.0243L60.3329 40.6456C64.6311 32.6337 61.6956 22.4696 53.7788 17.9856C50.9758 16.4056 47.7807 15.6567 44.5675 15.8267C41.3544 15.9968 38.2562 17.0786 35.6356 18.9456ZM57.0276 38.8717C55.752 41.2615 53.7635 43.1945 51.3385 44.4018C51.2614 44.4424 51.1868 44.4835 51.1145 44.525L42.7483 39.755L43.3728 28.3535C43.3862 28.1075 43.3511 27.8612 43.2693 27.6288C43.1876 27.3964 43.0609 27.1823 42.8964 26.9989C42.7319 26.8154 42.5329 26.6661 42.3108 26.5596C42.0886 26.453 41.8477 26.3913 41.6016 26.3778C41.3556 26.3644 41.1094 26.3996 40.8769 26.4813C40.6445 26.563 40.4304 26.6898 40.247 26.8542C40.0635 27.0187 39.9143 27.2177 39.8077 27.4398C39.7012 27.662 39.6394 27.903 39.626 28.149L39.1078 37.6794L33.5982 34.5381C33.1662 34.2918 32.6541 34.2272 32.1745 34.3585C31.6948 34.4899 31.287 34.8063 31.0407 35.2383C30.7944 35.6703 30.7298 36.1825 30.8611 36.6621C30.9924 37.1417 31.3089 37.5496 31.7409 37.7959L42.137 43.7232L34.1995 49.0235C33.7857 49.2999 33.4987 49.7294 33.4016 50.2174C33.3045 50.7054 33.4052 51.212 33.6816 51.6258C33.958 52.0396 34.3875 52.3266 34.8755 52.4237C35.3636 52.5208 35.8702 52.4201 36.2839 52.1436L45.7775 45.7988L49.251 47.7792C49.2513 47.8639 49.254 47.9491 49.2591 48.0348C49.4564 50.7369 48.8081 53.4336 47.404 55.7507C45.8715 58.2892 43.5245 60.234 40.7455 61.2681C37.9664 62.3023 34.9191 62.365 32.0999 61.4459C29.2807 60.5268 26.8557 58.6802 25.2202 56.2068C23.5846 53.7335 22.8347 50.7791 23.0927 47.8252C23.1756 46.8916 22.9037 45.9611 22.3312 45.2191C20.6392 43.0225 19.6344 40.3747 19.4431 37.6086C19.2517 34.8425 19.8823 32.0816 21.2556 29.6729C22.6289 27.2642 24.6837 25.3152 27.1615 24.0709C29.6394 22.8267 32.4298 22.3427 35.1819 22.6799C36.112 22.7946 37.0513 22.5546 37.8124 22.0078C40.2231 20.2811 43.1474 19.4216 46.1089 19.5693C49.0705 19.717 51.8948 20.8632 54.1216 22.8212C56.3485 24.7791 57.8468 27.4334 58.3724 30.3517C58.898 33.27 58.4198 36.2803 57.0159 38.8921L57.0276 38.8717Z" fill="#0B7509"/>
</g>
<g clip-path="url(#clip2_494_2263)">
<path d="M108.274 47.6577C110.431 44.8873 111.721 41.5412 111.982 38.0399C112.243 34.5386 111.464 31.0382 109.742 27.9784C108.02 24.9187 105.432 22.4361 102.303 20.8426C99.1747 19.2491 95.6449 18.6157 92.1574 19.0221C89.5478 17.1413 86.4565 16.0425 83.2452 15.8542C80.0339 15.666 76.8354 16.396 74.0239 17.959C66.0823 22.399 63.0864 32.5489 67.34 40.5846C68.626 43.0159 70.4893 45.0943 72.7662 46.6372L64.6964 51.179C64.263 51.4229 63.9443 51.8289 63.8103 52.3078C63.6764 52.7867 63.7381 53.2992 63.982 53.7326C64.2259 54.166 64.632 54.4847 65.1109 54.6186C65.5898 54.7526 66.1023 54.6909 66.5356 54.447L74.6055 49.9051C74.7356 52.5047 75.4699 55.0382 76.7501 57.3044L76.9639 57.6843C81.626 65.4901 91.8531 68.1979 99.7694 63.7129C102.566 62.1211 104.851 59.7656 106.357 56.9223C107.863 54.0789 108.528 50.8653 108.274 47.6577ZM80.1847 55.7613C78.7908 53.4386 78.1552 50.7392 78.3664 48.0386C78.3712 47.9516 78.3744 47.8664 78.3759 47.7831L86.7685 43.0597L96.2267 49.4571C96.4308 49.5951 96.6601 49.6916 96.9014 49.741C97.1428 49.7904 97.3916 49.7917 97.6335 49.745C97.8754 49.6982 98.1057 49.6043 98.3113 49.4685C98.517 49.3328 98.6938 49.1579 98.8318 48.9537C98.9698 48.7496 99.0663 48.5203 99.1157 48.279C99.1651 48.0376 99.1664 47.7888 99.1197 47.5469C99.0729 47.305 98.979 47.0747 98.8432 46.8691C98.7075 46.6634 98.5325 46.4866 98.3284 46.3486L90.4204 41.0043L95.9474 37.8937C96.3807 37.6498 96.6995 37.2437 96.8334 36.7648C96.9674 36.2859 96.9056 35.7734 96.6617 35.3401C96.4178 34.9067 96.0118 34.588 95.5329 34.454C95.054 34.32 94.5415 34.3818 94.1081 34.6257L83.6792 40.4952L83.214 30.962C83.1897 30.465 82.9689 29.9981 82.6002 29.6639C82.2315 29.3297 81.7452 29.1556 81.2482 29.1799C80.7512 29.2043 80.2842 29.4251 79.95 29.7938C79.6158 30.1624 79.4417 30.6488 79.4661 31.1458L80.0272 42.5506L76.5428 44.5117C76.47 44.4684 76.3955 44.4269 76.3194 44.3873C73.9003 43.1672 71.9207 41.2247 70.6551 38.8291C69.2657 36.2095 68.8043 33.1966 69.3461 30.2813C69.8879 27.366 71.4009 24.72 73.6386 22.7745C75.8763 20.8289 78.7069 19.6985 81.6693 19.5672C84.6316 19.436 87.5511 20.3117 89.9521 22.0517C90.7102 22.6028 91.6481 22.8479 92.5789 22.7384C95.3328 22.4165 98.1205 22.916 100.591 24.174C103.062 25.432 105.106 27.3923 106.466 29.8086C107.826 32.2249 108.441 34.9893 108.235 37.7543C108.028 40.5193 107.008 43.1615 105.304 45.3487C104.728 46.0875 104.45 47.0164 104.528 47.9504C104.77 50.9058 104.004 53.8559 102.354 56.3201C100.705 58.7844 98.2698 60.6175 95.4456 61.5209C92.6213 62.4243 89.5743 62.3447 86.8011 61.2952C84.0278 60.2456 81.6917 58.2878 80.1732 55.7409L80.1847 55.7613Z" fill="#0B7509"/>
</g>
<path d="M53.2367 96.9355C54.9243 100.014 57.4842 102.526 60.5948 104.154C63.7053 105.783 67.2278 106.456 70.7196 106.089C74.2114 105.721 77.5168 104.33 80.2205 102.09C82.9242 99.8504 84.9056 96.8613 85.9159 93.4988C88.6775 91.8491 90.9122 89.4472 92.3587 86.574C93.8052 83.7008 94.4037 80.4751 94.084 77.2742C93.1581 68.223 85.029 61.447 75.9653 62.1645C73.2233 62.3807 70.5764 63.2668 68.257 64.745L67.2884 55.5357C67.2364 55.0411 66.9901 54.5875 66.6036 54.2745C66.2171 53.9616 65.7222 53.815 65.2276 53.867C64.7331 53.9191 64.2794 54.1654 63.9665 54.5519C63.6536 54.9384 63.507 55.4333 63.559 55.9279L64.5275 65.1372C62.0896 64.2256 59.4727 63.8948 56.8846 64.1712L56.451 64.2168C47.4363 65.4005 40.8942 73.7147 41.8715 82.7605C42.2237 85.9588 43.4796 88.9907 45.4924 91.501C47.5052 94.0114 50.1914 95.8965 53.2367 96.9355ZM56.9388 67.9361C59.6239 67.5778 62.3539 68.065 64.7493 69.33C64.8272 69.3689 64.9042 69.4056 64.98 69.4401L65.9873 79.0177L56.3632 85.1627C56.1555 85.2953 55.976 85.4676 55.8349 85.6696C55.6939 85.8716 55.594 86.0994 55.5409 86.34C55.4879 86.5806 55.4827 86.8293 55.5258 87.0719C55.5689 87.3145 55.6593 87.5462 55.792 87.7538C55.9246 87.9615 56.0968 88.141 56.2988 88.282C56.5008 88.4231 56.7286 88.523 56.9692 88.5761C57.2098 88.6291 57.4585 88.6342 57.7011 88.5912C57.9437 88.5481 58.1755 88.4577 58.3831 88.325L66.4256 83.1854L67.0889 89.4928C67.1409 89.9873 67.3873 90.441 67.7738 90.7539C68.1602 91.0668 68.6552 91.2134 69.1497 91.1614C69.6443 91.1094 70.0979 90.863 70.4109 90.4765C70.7238 90.0901 70.8704 89.5951 70.8184 89.1006L69.5667 77.199L78.5025 80.5531C78.9684 80.7279 79.4846 80.7104 79.9376 80.5045C80.3906 80.2987 80.7433 79.9213 80.9181 79.4554C81.0929 78.9895 81.0754 78.4732 80.8695 78.0202C80.6636 77.5672 80.2863 77.2145 79.8204 77.0398L69.1284 73.0314L68.7102 69.0549C68.7788 69.0052 68.8464 68.9533 68.913 68.8992C70.9925 67.1624 73.5608 66.1156 76.2619 65.904C79.2177 65.6676 82.1665 66.4391 84.6278 68.0927C87.0891 69.7463 88.918 72.1847 89.8164 75.0106C90.7148 77.8364 90.6298 80.8832 89.5754 83.6546C88.5209 86.426 86.559 88.7587 84.0094 90.2726C83.2029 90.75 82.6058 91.5137 82.3372 92.4116C81.5404 95.0673 79.9762 97.4282 77.8413 99.1975C75.7065 100.967 73.0963 102.065 70.3388 102.355C67.5813 102.645 64.7996 102.114 62.3434 100.827C59.8872 99.5409 57.8661 97.5571 56.5342 95.1252C56.0847 94.3029 55.3418 93.6801 54.4536 93.3809C51.6448 92.4305 49.2406 90.557 47.6327 88.0656C46.0247 85.5742 45.3078 82.6117 45.5987 79.6608C45.8896 76.7099 47.1711 73.9444 49.2346 71.8149C51.2981 69.6854 54.0218 68.3174 56.9621 67.9337L56.9388 67.9361Z" fill="#0B7509"/>
</g>
<defs>
<clipPath id="clip0_494_2263">
<rect width="127.716" height="112.946" fill="white"/>
</clipPath>
<clipPath id="clip1_494_2263">
<rect width="60" height="60" fill="white" transform="translate(0 52.1233) rotate(-60.3105)"/>
</clipPath>
<clipPath id="clip2_494_2263">
<rect width="60" height="60" fill="white" transform="translate(98.2876) rotate(60.6287)"/>
</clipPath>
</defs>
</svg>
