<svg width="81" height="80" viewBox="0 0 81 80" fill="none" xmlns="http://www.w3.org/2000/svg">
<rect x="2.16669" y="1.5" width="77" height="77" rx="6.5" fill="#0B7509"/>
<rect x="2.16669" y="1.5" width="77" height="77" rx="6.5" stroke="white" stroke-width="3"/>
<path d="M56.5667 58C52.4 58 48.2834 57.092 44.2167 55.276C40.15 53.46 36.45 50.8847 33.1167 47.55C29.7834 44.2167 27.2087 40.5167 25.3927 36.45C23.5767 32.3833 22.668 28.2667 22.6667 24.1C22.6667 23.5 22.8667 23 23.2667 22.6C23.6667 22.2 24.1667 22 24.7667 22H32.8667C33.3334 22 33.75 22.1587 34.1167 22.476C34.4834 22.7933 34.7 23.168 34.7667 23.6L36.0667 30.6C36.1334 31.1333 36.1167 31.5833 36.0167 31.95C35.9167 32.3167 35.7334 32.6333 35.4667 32.9L30.6167 37.8C31.2834 39.0333 32.0747 40.2247 32.9907 41.374C33.9067 42.5233 34.9154 43.632 36.0167 44.7C37.05 45.7333 38.1334 46.692 39.2667 47.576C40.4 48.46 41.6 49.268 42.8667 50L47.5667 45.3C47.8667 45 48.2587 44.7753 48.7427 44.626C49.2267 44.4767 49.7014 44.4347 50.1667 44.5L57.0667 45.9C57.5334 46.0333 57.9167 46.2753 58.2167 46.626C58.5167 46.9767 58.6667 47.368 58.6667 47.8V55.9C58.6667 56.5 58.4667 57 58.0667 57.4C57.6667 57.8 57.1667 58 56.5667 58Z" fill="white"/>
</svg>
