<svg width="80" height="80" viewBox="0 0 80 80" fill="none" xmlns="http://www.w3.org/2000/svg">
<rect x="1.5" y="1.5" width="77" height="77" rx="6.5" fill="#0B7509"/>
<rect x="1.5" y="1.5" width="77" height="77" rx="6.5" stroke="white" stroke-width="3"/>
<path d="M40 39C38.6739 39 37.4021 38.4732 36.4645 37.5355C35.5268 36.5979 35 35.3261 35 34C35 32.6739 35.5268 31.4021 36.4645 30.4645C37.4021 29.5268 38.6739 29 40 29C41.3261 29 42.5979 29.5268 43.5355 30.4645C44.4732 31.4021 45 32.6739 45 34C45 34.6566 44.8707 35.3068 44.6194 35.9134C44.3681 36.52 43.9998 37.0712 43.5355 37.5355C43.0712 37.9998 42.52 38.3681 41.9134 38.6194C41.3068 38.8707 40.6566 39 40 39ZM40 20C36.287 20 32.726 21.475 30.1005 24.1005C27.475 26.726 26 30.287 26 34C26 44.5 40 60 40 60C40 60 54 44.5 54 34C54 30.287 52.525 26.726 49.8995 24.1005C47.274 21.475 43.713 20 40 20Z" fill="white"/>
</svg>
